<?xml version="1.0" encoding="UTF-8"?>
<svg version="1.1" xmlns="http://www.w3.org/2000/svg" width="800" height="800">
<path d="M0 0 C264 0 528 0 800 0 C800 264 800 528 800 800 C536 800 272 800 0 800 C0 536 0 272 0 0 Z " fill="#FEFEFE" transform="translate(0,0)"/>
<path d="M0 0 C3.05687599 0.93404544 3.73545072 1.87476563 5.25 4.6875 C11.86092219 24.37497158 4.76708251 44.42489853 -3.95507812 62.13427734 C-10.61762514 75.32301909 -10.61762514 75.32301909 -13.32104492 78.58056641 C-15.03648313 81.10990721 -15.2903255 82.80963366 -15.59375 85.83984375 C-15.70412598 86.90485107 -15.81450195 87.9698584 -15.92822266 89.06713867 C-16.03440918 90.24123291 -16.1405957 91.41532715 -16.25 92.625 C-16.43054932 94.47798706 -16.43054932 94.47798706 -16.61474609 96.3684082 C-17.96725344 110.6447649 -18.84789174 124.96456265 -19.74804688 139.27514648 C-19.80773651 140.21972717 -19.86742615 141.16430786 -19.92892456 142.13751221 C-20.03979316 143.90306084 -20.14893066 145.6687195 -20.25588989 147.43450928 C-20.50692861 151.4548389 -20.817284 155.45468493 -21.24560547 159.46020508 C-21.88557728 165.67026159 -22.17843461 171.89018475 -22.46875 178.125 C-22.49955784 178.78302738 -22.53036568 179.44105476 -22.56210709 180.11902237 C-22.80344617 185.30800899 -23.02909515 190.49760762 -23.25 195.6875 C-23.28353325 196.46767235 -23.3170665 197.2478447 -23.35161591 198.05165863 C-24.90563829 234.43258394 -25.23974912 270.81667245 -25.45898438 307.2265625 C-25.48538516 311.54948102 -25.51215478 315.87239711 -25.5390625 320.1953125 C-25.54845478 321.75781109 -25.54845478 321.75781109 -25.5580368 323.35187531 C-25.68594815 343.80485505 -26.13732963 364.24373734 -26.75 384.6875 C-28.625 385.3125 -28.625 385.3125 -30.75 385.6875 C-33.71654181 382.72095819 -33.44218014 379.27787205 -33.80932617 375.27197266 C-33.89462145 374.39230709 -33.97991673 373.51264153 -34.06779671 372.60631943 C-34.34565569 369.64755984 -34.60342477 366.6876297 -34.85546875 363.7265625 C-34.94457205 362.69449299 -35.03367535 361.66242348 -35.12547874 360.59907913 C-37.32932395 334.3621 -37.24905488 308.15056317 -37.08294678 281.84100342 C-37.0554797 276.76516897 -37.0471276 271.68937943 -37.03924179 266.61348248 C-36.96021968 216.97598085 -36.96021968 216.97598085 -35.75 192.6875 C-35.69893097 191.62865601 -35.64786194 190.56981201 -35.59524536 189.47888184 C-35.23056401 182.02500431 -34.81334446 174.57486749 -34.375 167.125 C-34.31130219 166.02259979 -34.24760437 164.92019958 -34.18197632 163.78439331 C-33.243007 147.59659719 -32.11133141 131.4353823 -30.66455078 115.28491211 C-30.57219902 114.24927628 -30.57219902 114.24927628 -30.47798157 113.19271851 C-30.31431081 111.37307403 -30.14624482 109.55382633 -29.9777832 107.73461914 C-29.77605779 105.03608223 -29.7054911 102.39181033 -29.75 99.6875 C-30.12769531 100.12578125 -30.50539063 100.5640625 -30.89453125 101.015625 C-32.83416451 103.2505186 -34.79041482 105.47007467 -36.75 107.6875 C-37.52601563 108.57050781 -38.30203125 109.45351563 -39.1015625 110.36328125 C-46.83743909 118.99895013 -55.21427715 126.85098711 -63.75 134.6875 C-64.77773558 135.64020248 -65.80511693 136.59328734 -66.83203125 137.546875 C-72.06631824 142.36930822 -77.45171875 146.92811742 -82.98828125 151.3984375 C-86.83137056 154.58379866 -90.49650637 157.94813013 -94.171875 161.32421875 C-103.79060425 170.14138723 -103.79060425 170.14138723 -106.81027222 171.86026001 C-109.63597779 174.52209857 -109.36431885 176.56695044 -109.53955078 180.39599609 C-109.57593658 181.07471268 -109.61232239 181.75342926 -109.64981079 182.45271301 C-109.76620512 184.70496549 -109.85557427 186.95747856 -109.9453125 189.2109375 C-110.02267861 190.79310899 -110.10188241 192.37519158 -110.18283081 193.95718384 C-110.39257041 198.14061766 -110.58016379 202.32474613 -110.7623291 206.50946045 C-111.05445483 213.12881422 -111.38038879 219.7466539 -111.70327187 226.3645668 C-111.78124411 227.96935178 -111.8583823 229.57417749 -111.93468285 231.17904282 C-112.45177407 242.02823135 -113.1583793 252.82198807 -114.33569336 263.62304688 C-114.77552564 267.68354463 -114.99766949 271.73272606 -115.1875 275.8125 C-118.6844251 343.11922049 -118.6844251 343.11922049 -134.75 357.6875 C-139.96599063 361.44786534 -145.55089071 361.67097378 -151.75 360.6875 C-168.25491288 354.8181615 -178.56216652 341.30179704 -185.99414062 326.01806641 C-195.38764116 305.60011641 -197.18609348 282.94592121 -189.6484375 261.5625 C-183.05875462 244.89697943 -172.9014371 230.67645843 -161.16088867 217.3034668 C-160.20812081 216.21221045 -159.26575509 215.11179681 -158.33325195 214.00317383 C-152.89817307 207.61566851 -146.95243546 201.73879318 -141.01586914 195.82299805 C-139.18454509 193.99705377 -137.35865312 192.16579908 -135.53320312 190.33398438 C-134.3544873 189.1559291 -133.17546146 187.97818391 -131.99609375 186.80078125 C-131.18959633 185.99124748 -131.18959633 185.99124748 -130.36680603 185.1653595 C-129.59053612 184.39381783 -129.59053612 184.39381783 -128.79858398 183.60668945 C-128.29812561 183.10712738 -127.79766724 182.60756531 -127.28204346 182.09286499 C-125.75 180.6875 -125.75 180.6875 -124.06610107 179.50894165 C-121.78703303 177.91148746 -120.01025151 176.50534175 -119.14909363 173.79914856 C-118.83165668 171.4528142 -118.71111673 169.16379287 -118.6484375 166.796875 C-118.60136658 165.91682297 -118.55429565 165.03677094 -118.50579834 164.13005066 C-118.40663603 162.22864133 -118.32004642 160.32654326 -118.24468994 158.42404175 C-118.04003256 153.31736528 -117.73767928 148.21601424 -117.453125 143.11328125 C-117.39774567 142.07051529 -117.34236633 141.02774933 -117.28530884 139.9533844 C-116.73741174 129.81768126 -115.87854674 119.72482702 -114.875 109.625 C-114.79248993 108.7876532 -114.70997986 107.9503064 -114.62496948 107.08758545 C-113.04347157 91.21135987 -110.91212039 75.42479807 -108.61206055 59.63873291 C-107.69577625 53.34837744 -106.82858083 47.05247511 -106 40.75 C-105.88019775 39.84024414 -105.76039551 38.93048828 -105.63696289 37.99316406 C-104.860963 31.94253159 -104.29500722 25.91310794 -103.9609375 19.8203125 C-103.75 17.6875 -103.75 17.6875 -102.75 16.6875 C-98.65210331 17.06693488 -96.21041065 17.38055957 -92.75 19.6875 C-93.16063124 23.62955991 -93.732723 26.64269372 -95.171875 30.375 C-110.53836052 70.5039799 -106.48958203 123.16469817 -108.75 165.6875 C-107.01954719 164.28283296 -105.29069684 162.87619168 -103.5625 161.46875 C-102.11810547 160.2940918 -102.11810547 160.2940918 -100.64453125 159.09570312 C-97.95022056 156.85408027 -95.33806568 154.5503367 -92.75 152.1875 C-88.52799106 148.34387866 -84.1640831 144.72457374 -79.73046875 141.12890625 C-71.22596996 134.16257369 -62.94065221 126.95367475 -54.87402344 119.48535156 C-52.14515653 116.95889555 -49.3847718 114.4839758 -46.5625 112.0625 C-42.07298117 108.16223052 -37.82854258 104.01500209 -33.75 99.6875 C-32.85796875 98.79417969 -31.9659375 97.90085937 -31.046875 96.98046875 C-27.93049829 93.16343218 -27.90436399 89.33989946 -27.6875 84.5625 C-27.55285108 82.68445781 -27.4118839 80.80686121 -27.265625 78.9296875 C-27.18892578 77.92518555 -27.11222656 76.92068359 -27.03320312 75.88574219 C-21.80567354 16.85070984 -21.80567354 16.85070984 -4.34765625 1.69921875 C-2.75 0.6875 -2.75 0.6875 0 0 Z " fill="#070707" transform="translate(525.75,256.3125)"/>
<path d="M0 0 C0.11695504 8.53945025 -0.18846053 16.93244905 -0.9375 25.4375 C-1.54154919 32.35945632 -2.02474139 39.26572997 -2.28379822 46.20880127 C-2.84615634 60.90498242 -4.23901957 75.51028018 -5.6751709 90.14123535 C-5.94015729 92.85471542 -6.19955085 95.56871722 -6.45887375 98.28274345 C-7.15571264 105.57240202 -7.87402894 112.85968806 -8.61071777 120.14544678 C-8.87034328 122.71617894 -9.12725871 125.28718624 -9.38146973 127.85845947 C-9.74655155 131.52788027 -10.12517783 135.19565412 -10.5078125 138.86328125 C-10.61366669 139.94457809 -10.71952087 141.02587494 -10.82858276 142.13993835 C-11.95463165 152.63756818 -13.94259597 161.34760726 -21.125 169.375 C-25.44712417 171.81793975 -29.15714695 171.94547504 -34 171 C-37.39932559 169.43575749 -40.14083998 167.39783214 -43 165 C-43.59425781 164.51660156 -44.18851562 164.03320312 -44.80078125 163.53515625 C-58.34695121 151.29689236 -67.12472439 130.68202142 -68.12304688 112.79541016 C-69.13125642 84.14135721 -57.24746888 61.45356622 -39 40 C-38.25878906 39.07574219 -37.51757812 38.15148437 -36.75390625 37.19921875 C-29.50661804 28.29935884 -21.41982529 20.23150391 -13.3125 12.125 C-12.7154425 11.52703613 -12.11838501 10.92907227 -11.50323486 10.31298828 C-9.79345168 8.60349854 -8.07944467 6.89839485 -6.36328125 5.1953125 C-5.83776169 4.6709964 -5.31224213 4.1466803 -4.77079773 3.60647583 C-1.11665435 0 -1.11665435 0 0 0 Z " fill="#FDFDFD" transform="translate(406,440)"/>
<path d="M0 0 C2.475 0.495 2.475 0.495 5 1 C4.3806206 8.78789836 3.13449214 16.38920498 1.6875 24.0625 C1.46384766 25.26060303 1.24019531 26.45870605 1.00976562 27.69311523 C-0.31472609 34.68584662 -1.77774824 41.61432193 -3.48413086 48.52246094 C-5.26857372 55.85840552 -6.6156383 63.27414272 -8.01049805 70.69213867 C-9.48065772 78.45177514 -11.1092428 86.1636312 -12.8125 93.875 C-16.52977916 110.84862732 -19.50334387 127.95793955 -22.56338501 145.05937195 C-23.53989097 150.49846378 -24.54597481 155.93042295 -25.59765625 161.35546875 C-29.66610462 182.37868402 -32.99526199 203.4886261 -36.19042969 224.66015625 C-36.80772813 228.74576216 -37.43865242 232.82902607 -38.07775879 236.91127014 C-49.73135903 293.86805174 -49.73135903 293.86805174 -41 349 C-36.08276761 349.38538541 -33.89393487 348.68772677 -30.0625 345.625 C-2.33199373 324.42373336 27.70193965 313.46931027 63 316 C83.8621268 318.8621268 83.8621268 318.8621268 88 323 C87.625 325.125 87.625 325.125 87 327 C86.29101562 326.855625 85.58203125 326.71125 84.8515625 326.5625 C50.77292142 320.6214294 16.64945613 326.74094978 -11.70483398 346.59716797 C-13.8233571 348.1061958 -15.92649813 349.63447129 -18.02734375 351.16796875 C-31.38390394 360.81492339 -31.38390394 360.81492339 -41 360 C-46.45905244 357.89860743 -50.39644138 354.58462267 -52.81616211 349.17553711 C-55.84672377 340.51610644 -55.41640064 331.73738841 -55.3125 322.6875 C-55.3018283 320.97094733 -55.29116755 319.2543946 -55.28051758 317.5378418 C-55.13104835 300.8107135 -53.57814537 284.59410191 -50.81811523 268.10498047 C-50.00049224 263.11060344 -49.32703272 258.10325899 -48.66796875 253.0859375 C-47.07501647 241.21173906 -45.22120157 229.38402037 -43.31298828 217.55688477 C-42.76010518 214.12522136 -42.21376494 210.69256233 -41.66796875 207.25976562 C-36.41666514 174.44730648 -30.30204361 141.81787361 -23.63928604 109.26511765 C-22.93607494 105.82606134 -22.23611169 102.3863467 -21.5360384 98.94665051 C-8.3787578 34.30809031 -8.3787578 34.30809031 -3 10.4375 C-2.8038208 9.56665771 -2.6076416 8.69581543 -2.40551758 7.79858398 C-1.1288325 2.25766501 -1.1288325 2.25766501 0 0 Z " fill="#080808" transform="translate(250,259)"/>
<path d="M0 0 C4.93017578 3.63232422 4.93017578 3.63232422 5.55859375 6.94140625 C5.51863281 8.13636719 5.47867187 9.33132813 5.4375 10.5625 C5.41864746 11.23796875 5.39979492 11.9134375 5.38037109 12.609375 C5.29265136 15.07629076 5.15113765 17.53614609 5 20 C4.9386084 21.03366699 4.8772168 22.06733398 4.81396484 23.13232422 C4.32021383 31.09825107 3.69515669 39.04930564 3 47 C2.93586914 47.76812012 2.87173828 48.53624023 2.80566406 49.32763672 C-2.72115393 112.66746886 -32.54435709 174.855014 -73 223 C-73.43699219 223.52190918 -73.87398437 224.04381836 -74.32421875 224.58154297 C-77.52826765 228.40598369 -80.75654534 232.2089491 -84 236 C-84.72445312 236.85078125 -85.44890625 237.7015625 -86.1953125 238.578125 C-89.86632664 242.81058836 -93.66608396 246.58211175 -97.9453125 250.1953125 C-100.18128376 252.15922642 -102.23809731 254.24153958 -104.3125 256.375 C-109.22481862 261.33770137 -114.52056605 265.68108959 -120 270 C-120.94101562 270.75796875 -121.88203125 271.5159375 -122.8515625 272.296875 C-151.82479137 295.20593969 -184.51329134 312.73365154 -219.27685547 325.03613281 C-221.72305989 325.90197601 -224.16054675 326.78867812 -226.59765625 327.6796875 C-245.12263626 334.30910545 -264.39573816 337.96013882 -283.8125 340.8125 C-284.88238159 340.9703447 -284.88238159 340.9703447 -285.97387695 341.13137817 C-298.26675095 342.92423685 -310.57111533 344.14751625 -323 344.375 C-323.80566406 344.41238281 -324.61132812 344.44976563 -325.44140625 344.48828125 C-326.22386719 344.49988281 -327.00632812 344.51148438 -327.8125 344.5234375 C-328.49957031 344.54325684 -329.18664062 344.56307617 -329.89453125 344.58349609 C-333.13735384 343.68480106 -334.78789685 341.43842871 -337 339 C-336.13648926 338.95512451 -335.27297852 338.91024902 -334.38330078 338.86401367 C-308.67022089 337.49716585 -283.17129872 335.75676411 -258 330 C-256.96190186 329.76627686 -256.96190186 329.76627686 -255.90283203 329.52783203 C-195.83141164 315.83241773 -139.40926611 285.20273068 -96.7421875 240.58203125 C-95 239 -95 239 -93 239 C-92.74347656 238.41347656 -92.48695313 237.82695313 -92.22265625 237.22265625 C-90.88826104 234.79687071 -89.45514672 233.32471299 -87.4375 231.4375 C-82.52302249 226.61955687 -78.22270578 221.4258557 -74 216 C-73.17338867 214.93942383 -73.17338867 214.93942383 -72.33007812 213.85742188 C-23.08409097 150.29882274 -3.61456782 79.31283294 0 0 Z " fill="#0E0E0E" transform="translate(720,419)"/>
<path d="M0 0 C0.66 1.32 1.32 2.64 2 4 C1.40388916 4.11480713 0.80777832 4.22961426 0.19360352 4.34790039 C-61.40494339 16.35096803 -118.09385415 42.42606104 -164.6640625 84.8828125 C-166.76918748 86.79080203 -168.90613634 88.65047069 -171.0625 90.5 C-178.28048873 96.80118774 -184.79731703 103.71090005 -191 111 C-191.78761719 111.89847656 -192.57523437 112.79695313 -193.38671875 113.72265625 C-206.96321845 129.31536747 -218.53669424 146.18990372 -229 164 C-229.48065918 164.81549316 -229.96131836 165.63098633 -230.45654297 166.47119141 C-248.70280098 197.72979635 -261.007282 232.03844173 -267.5546875 267.58447266 C-267.8404821 269.13472035 -268.13167989 270.68398724 -268.4296875 272.23193359 C-275.66942483 309.90759497 -274.71558644 348.62346154 -268.57250977 386.33007812 C-267.96656639 390.2143173 -267.47004421 394.09725767 -267 398 C-269.62929935 396.81825207 -271.07603186 396.07836849 -273 394 C-274.33643073 390.27497192 -274.76919228 386.47856777 -275.25 382.5625 C-275.4056543 381.43215332 -275.56130859 380.30180664 -275.72167969 379.13720703 C-276.17500726 375.76100957 -276.58880767 372.3815429 -277 369 C-277.22812596 367.35011619 -277.45718267 365.70036058 -277.6875 364.05078125 C-282.66304597 325.12060633 -279.03352773 283.81385764 -269 246 C-268.70609375 244.88866699 -268.4121875 243.77733398 -268.109375 242.63232422 C-255.14547485 194.57388292 -232.01831915 150.85092402 -199.63671875 113.109375 C-197.26659271 110.33783603 -195.00800916 107.48881649 -192.75 104.625 C-184.54535363 94.54289401 -174.9664557 85.33073969 -165 77 C-164.09765625 76.20851563 -163.1953125 75.41703125 -162.265625 74.6015625 C-124.20977315 41.39227461 -77.68427657 17.83394129 -29 5 C-28.10667969 4.75733398 -27.21335937 4.51466797 -26.29296875 4.26464844 C-23.61539327 3.53779587 -20.933844 2.82831762 -18.25 2.125 C-17.45239258 1.9094043 -16.65478516 1.69380859 -15.83300781 1.47167969 C-10.42392673 0.097185 -5.58107486 -0.18900054 0 0 Z " fill="#0D0D0D" transform="translate(332,97)"/>
<path d="M0 0 C3.465 1.98 3.465 1.98 7 4 C6.43410156 4.98742187 5.86820313 5.97484375 5.28515625 6.9921875 C4.54424241 8.28644206 3.80335855 9.58071379 3.0625 10.875 C2.68931641 11.52597656 2.31613281 12.17695312 1.93164062 12.84765625 C-0.10133078 16.38746834 -0.10133078 16.38746834 -2 20 C-0.96875 20.0825 0.0625 20.165 1.125 20.25 C8.09855811 21.59972092 11.9149899 25.51441501 16 31 C17.87731344 36.63194032 17.34646154 40.80977343 14.875 46.125 C12.00170497 51.48793987 8.92142738 55.02619087 3 57 C-4.74858678 57.99523133 -10.54988584 56.35032741 -17 52 C-19.52259809 49.81585424 -21.81028369 47.51599854 -24 45 C-22.73942202 41.68479635 -21.32140232 38.64602118 -19.53125 35.5859375 C-19.04688477 34.7508667 -18.56251953 33.9157959 -18.06347656 33.05541992 C-17.5475293 32.17088135 -17.03158203 31.28634277 -16.5 30.375 C-10.72624417 20.38703573 -5.29421437 10.24875569 0 0 Z " fill="#0C0C0C" transform="translate(583,88)"/>
<path d="M0 0 C6.54812346 2.14072907 13.03300471 4.42996971 19.50390625 6.79296875 C20.4677977 7.14386063 21.43168915 7.4947525 22.42478943 7.85627747 C25.47111002 8.96554399 28.51681364 10.0764934 31.5625 11.1875 C33.64123532 11.94477325 35.72001098 12.70193579 37.79882812 13.45898438 C42.86635233 15.30471019 47.93337254 17.15181409 53 19 C52.68927002 20.87628174 52.68927002 20.87628174 52 23 C49.64883167 24.53686495 47.42139784 25.80032429 44.921875 27.046875 C44.19945618 27.42177063 43.47703735 27.79666626 42.73272705 28.18292236 C40.41157734 29.3849363 38.0815569 30.568318 35.75 31.75 C32.72030331 33.30025704 29.6949776 34.85880195 26.671875 36.421875 C25.9344104 36.80146362 25.1969458 37.18105225 24.43713379 37.57214355 C18.57003813 40.62365811 12.97303832 43.99531863 7.41503906 47.57519531 C5 49 5 49 3 49 C3 46.03 3 43.06 3 40 C5.12282669 38.99539469 7.24833021 37.99644398 9.375 37 C10.55835938 36.443125 11.74171875 35.88625 12.9609375 35.3125 C16 34 16 34 18 34 C17.86111494 30.72883268 17.71269508 27.458166 17.5625 24.1875 C17.52318359 23.25873047 17.48386719 22.32996094 17.44335938 21.37304688 C17.40146484 20.48037109 17.35957031 19.58769531 17.31640625 18.66796875 C17.27974854 17.84578857 17.24309082 17.0236084 17.20532227 16.17651367 C17.06572228 13.82094822 17.06572228 13.82094822 16 11 C13.29876276 9.95880649 10.71185565 9.09671155 7.9375 8.3125 C7.17888672 8.08755859 6.42027344 7.86261719 5.63867188 7.63085938 C3.76233696 7.0762195 1.88155145 6.53667702 0 6 C0 4.02 0 2.04 0 0 Z " fill="#0B0B0B" transform="translate(687,301)"/>
<path d="M0 0 C2.64 0.33 5.28 0.66 8 1 C7.87882812 1.57105469 7.75765625 2.14210938 7.6328125 2.73046875 C6.17452411 9.78634104 5.05866055 16.87454803 4 24 C4.7113208 24.08564209 5.4226416 24.17128418 6.15551758 24.25952148 C9.37491063 24.64896207 12.59370181 25.0431743 15.8125 25.4375 C16.93205078 25.57220703 18.05160156 25.70691406 19.20507812 25.84570312 C20.27822266 25.97783203 21.35136719 26.10996094 22.45703125 26.24609375 C23.44678955 26.36654053 24.43654785 26.4869873 25.45629883 26.61108398 C28 27 28 27 31 28 C31.04898438 27.33355469 31.09796875 26.66710937 31.1484375 25.98046875 C31.69664269 19.22242201 32.67552143 12.64811086 34 6 C36.64 6.33 39.28 6.66 42 7 C41.8138916 7.69585205 41.6277832 8.3917041 41.43603516 9.10864258 C39.32433904 17.24221216 37.76784328 25.40352162 36.375 33.6875 C36.1584375 34.94111328 35.941875 36.19472656 35.71875 37.48632812 C34.61181872 43.98100823 33.6394148 50.44244596 33 57 C30.36 56.67 27.72 56.34 25 56 C25.47445876 53.39047683 25.94924068 50.78101913 26.42578125 48.171875 C26.80461312 46.07927993 27.17714921 43.98553402 27.54296875 41.890625 C27.71441406 40.91609375 27.88585937 39.9415625 28.0625 38.9375 C28.29646484 37.58978516 28.29646484 37.58978516 28.53515625 36.21484375 C29 34 29 34 30 32 C29.15179687 31.89042969 28.30359375 31.78085938 27.4296875 31.66796875 C18.8320125 30.50586543 10.46112246 28.92882731 2 27 C2.020625 28.0725 2.04125 29.145 2.0625 30.25 C2.01251476 33.2491144 1.75717107 35.19238756 1 38 C0.7801777 40.24707241 0.59516013 42.49771238 0.4375 44.75 C0.35371094 45.92046875 0.26992188 47.0909375 0.18359375 48.296875 C0.12300781 49.18890625 0.06242187 50.0809375 0 51 C-2.97 50.67 -5.94 50.34 -9 50 C-8.76925781 48.98808594 -8.53851563 47.97617188 -8.30078125 46.93359375 C-4.85587479 31.40107633 -2.442926 15.71464931 0 0 Z " fill="#0C0C0C" transform="translate(488,63)"/>
<path d="M0 0 C1.11246094 -0.01675781 2.22492188 -0.03351563 3.37109375 -0.05078125 C6.99659805 0.36191385 8.73896939 1.0120248 11.5625 3.3125 C14.00047243 7.4715915 14.98462037 10.79467808 15.29296875 15.5859375 C15.37353516 16.73964844 15.45410156 17.89335938 15.53710938 19.08203125 C15.60736328 20.27183594 15.67761719 21.46164063 15.75 22.6875 C15.83185547 23.90050781 15.91371094 25.11351563 15.99804688 26.36328125 C16.19766421 29.34579902 16.38542274 32.32857328 16.5625 35.3125 C13.5625 35.3125 10.5625 35.3125 7.5625 35.3125 C6.8096875 35.63347656 6.056875 35.95445313 5.28125 36.28515625 C0.74809784 37.99811461 -3.66845705 37.98560816 -8.4375 37.3125 C-11.72663257 35.27323781 -12.93761534 33.85759804 -14.125 30.1875 C-14.93681357 25.89648543 -14.752436 23.86888694 -12.5625 20 C-8.03748987 15.50005918 -2.22999636 13.08503545 4.125 13.0625 C5.259375 13.145 6.39375 13.2275 7.5625 13.3125 C7.294375 12.03375 7.02625 10.755 6.75 9.4375 C6.59917969 8.71820313 6.44835937 7.99890625 6.29296875 7.2578125 C5.63941162 4.94203451 5.63941162 4.94203451 2.5625 3.3125 C-2.70914052 3.10518829 -7.16380897 4.14169698 -11.4375 7.3125 C-11.1875 4.9375 -11.1875 4.9375 -10.4375 2.3125 C-7.10676197 -0.00556708 -3.97344524 0.01378073 0 0 Z " fill="#0C0C0C" transform="translate(437.4375,76.6875)"/>
<path d="M0 0 C5.81049961 0.66677864 10.03484875 2.17833036 14.8125 5.5625 C16.98412251 8.68420735 17.57654859 10.77829154 17.37890625 14.578125 C16.35107584 19.76689643 14.31095794 24.58828618 12.3203125 29.47265625 C10.75235172 33.39059579 9.75647938 37.32706551 8.8125 41.4375 C6.5025 40.7775 4.1925 40.1175 1.8125 39.4375 C1.8125 38.7775 1.8125 38.1175 1.8125 37.4375 C1.09964844 37.43492188 0.38679687 37.43234375 -0.34765625 37.4296875 C-6.68354731 37.17386417 -10.35761627 36.37712363 -14.9453125 31.91015625 C-16.91617003 29.57363648 -17.20281698 28.30475287 -17.5625 25.1875 C-17.06822704 20.24477042 -15.64921699 18.89921699 -12.1875 15.4375 C-5.6874845 12.18749225 4.14196213 14.34478224 10.8125 16.4375 C11.39544271 10.81729882 11.39544271 10.81729882 9.0625 5.9375 C4.08402376 3.63974174 -0.79219406 4.12772167 -6.1875 4.4375 C-3.5859375 0.4921875 -3.5859375 0.4921875 0 0 Z " fill="#0A0A0A" transform="translate(544.1875,90.5625)"/>
<path d="M0 0 C4.90635475 2.56899261 8.14116054 6.04066913 9.8828125 11.265625 C10.43409635 17.77077446 9.20648649 21.6866008 5.8828125 27.265625 C0.40525565 25.54877882 -3.12228339 22.00582892 -7.30078125 18.25390625 C-10.43194057 15.50585348 -13.06347662 13.5361911 -17.1171875 12.265625 C-20.13215561 17.29057185 -20.75252075 20.54762575 -20.1171875 26.265625 C-18.00088194 29.7424127 -15.99718909 31.97229114 -12.1171875 33.265625 C-9.45038818 33.70667258 -6.8102791 33.99631584 -4.1171875 34.265625 C-6.43086138 36.49031142 -7.61391318 37.25418695 -10.8671875 37.328125 C-16.50565179 35.48478091 -21.25909247 32.02000244 -24.6171875 27.078125 C-26.94936892 22.35101289 -26.95020805 17.38906998 -26.1171875 12.265625 C-24.10876221 6.7956741 -20.48965658 2.93718148 -15.42578125 0.11328125 C-10.39346999 -1.73445402 -5.06697877 -1.75754983 0 0 Z " fill="#0C0C0C" transform="translate(622.1171875,131.734375)"/>
<path d="M0 0 C7.20468328 6.66433203 7.20468328 6.66433203 7.73828125 11.44921875 C7.95314172 18.83363384 6.42457647 22.41306471 2 28.3125 C0.5 29.3125 0.5 29.3125 -1.42114258 29.12060547 C-4.13854172 28.06428237 -4.78346034 26.87120957 -6.26171875 24.3828125 C-6.74060547 23.58746094 -7.21949219 22.79210937 -7.71289062 21.97265625 C-8.44282227 20.71775391 -8.44282227 20.71775391 -9.1875 19.4375 C-9.68572266 18.60863281 -10.18394531 17.77976563 -10.69726562 16.92578125 C-14.32918487 10.8249454 -14.32918487 10.8249454 -15.5 7.3125 C-16.64926266 8.26671808 -17.79430541 9.22602045 -18.9375 10.1875 C-19.57558594 10.72117188 -20.21367188 11.25484375 -20.87109375 11.8046875 C-22.80803707 13.59763743 -23.43473607 14.67366649 -23.703125 17.30078125 C-23.80026259 22.11718698 -23.83833122 25.54341636 -20.5 29.3125 C-18.22610099 30.84864511 -15.95563268 32.06151732 -13.5 33.3125 C-13.5 33.6425 -13.5 33.9725 -13.5 34.3125 C-16.0625 34.8125 -16.0625 34.8125 -19.5 34.3125 C-25.39150741 29.42776917 -28.90307218 23.41637877 -30 15.875 C-29.14678422 9.79583759 -25.97043774 5.36154224 -21.375 1.375 C-15.23369412 -3.03071944 -6.73901263 -3.2491668 0 0 Z " fill="#0E0E0E" transform="translate(679.5,194.6875)"/>
<path d="M0 0 C3.70486997 2.46991331 3.92298168 3.75674728 5 8 C7.28763105 27.24689588 -0.66855673 46.07199927 -11 62 C-13.3046875 64.53515625 -13.3046875 64.53515625 -15 66 C-13.72948233 44.83930916 -12.06021865 18.09032797 0 0 Z " fill="#F7F7F7" transform="translate(526,265)"/>
<path d="M0 0 C4.13770511 0.34670515 6.45960218 1.57560295 9.30859375 4.68359375 C11.42798208 7.38099708 11.30641341 8.8100535 11.24609375 12.30859375 C10.25720838 18.59507932 7.1321302 24.1054905 3.49609375 29.24609375 C0.27147157 31.36513118 -2.90746693 31.87352121 -6.69140625 31.68359375 C-10.81470121 30.17700521 -14.06864467 28.2505495 -16.69140625 24.68359375 C-16.06258058 19.13802182 -13.34011747 14.68399584 -10.69140625 9.87109375 C-10.24667969 8.98744141 -9.80195312 8.10378906 -9.34375 7.19335938 C-6.85767038 2.70941354 -5.40311963 0.11266754 0 0 Z " fill="#FAFAFA" transform="translate(582.69140625,110.31640625)"/>
<path d="M0 0 C0.495 2.97 0.495 2.97 1 6 C0.01 6.66 -0.98 7.32 -2 8 C-0.6078125 9.0828125 -0.6078125 9.0828125 0.8125 10.1875 C4.79645023 13.54984098 6.77520535 16.20164279 7.4375 21.5 C6.90275968 25.77792258 6.0452461 26.97360991 3 30 C0.16259816 31.50114756 -2.78741504 32.56339423 -5.8125 33.625 C-7.38190093 34.19945508 -8.95091711 34.77496248 -10.51953125 35.3515625 C-11.27572754 35.62387695 -12.03192383 35.89619141 -12.81103516 36.17675781 C-14.87437536 36.95275415 -16.87574534 37.80930264 -18.88671875 38.7109375 C-22 40 -22 40 -25 40 C-25.99 36.535 -25.99 36.535 -27 33 C-25.96101562 32.68546875 -24.92203125 32.3709375 -23.8515625 32.046875 C-10.44324501 28.78594606 -10.44324501 28.78594606 1 22 C1.58442963 19.12762267 1.58442963 19.12762267 1 16 C-1.87112857 12.39058123 -4.48322417 10.01582107 -9 9 C-12.30473826 9.73532441 -15.36840453 10.97913813 -18.5 12.25 C-19.34175781 12.57613281 -20.18351563 12.90226563 -21.05078125 13.23828125 C-23.37430808 14.1420783 -25.68833385 15.06636034 -28 16 C-29.0209375 16.40734375 -30.041875 16.8146875 -31.09375 17.234375 C-31.7228125 17.48703125 -32.351875 17.7396875 -33 18 C-34.25664978 15.09399739 -35 13.20395416 -35 10 C-34.20827393 9.73783691 -33.41654785 9.47567383 -32.60083008 9.20556641 C-29.64648314 8.22648565 -26.69259826 7.24602634 -23.73901367 6.26464844 C-21.83872947 5.63370881 -19.93792285 5.00434331 -18.03710938 4.375 C-16.2340332 3.77558594 -16.2340332 3.77558594 -14.39453125 3.1640625 C-13.28956299 2.79748535 -12.18459473 2.4309082 -11.04614258 2.05322266 C-8.02437821 1.05553781 -8.02437821 1.05553781 -5.2878418 -0.19775391 C-3 -1 -3 -1 0 0 Z " fill="#0B0B0B" transform="translate(706,241)"/>
<path d="M0 0 C1.4921875 2.81640625 1.4921875 2.81640625 2.875 6.5625 C3.12620605 7.22781738 3.37741211 7.89313477 3.63623047 8.57861328 C4.43912048 10.71383164 5.22011686 12.85628418 6 15 C6.7825079 17.10842407 7.56946805 19.21513909 8.35742188 21.3215332 C8.86615404 22.68252119 9.37269206 24.04433151 9.87695312 25.40698242 C11.25976739 29.12260436 12.7327872 32.76675779 14.375 36.375 C16 40 16 40 16 42 C16.96421875 41.51789063 17.9284375 41.03578125 18.921875 40.5390625 C23.94791667 38.02604167 28.97395833 35.51302083 34 33 C34 34.98 34 36.96 34 39 C30.37732706 40.5056651 26.75149451 42.00356546 23.125 43.5 C22.09246094 43.92925781 21.05992187 44.35851562 19.99609375 44.80078125 C19.00996094 45.20683594 18.02382813 45.61289063 17.0078125 46.03125 C15.64100342 46.59682617 15.64100342 46.59682617 14.24658203 47.17382812 C12 48 12 48 10 48 C9.77578369 47.2174585 9.55156738 46.43491699 9.32055664 45.62866211 C6.87213263 37.35194445 3.86230687 29.47976608 0.4375 21.5625 C-0.04396484 20.43134766 -0.52542969 19.30019531 -1.02148438 18.13476562 C-3.68187935 11.88887569 -3.68187935 11.88887569 -6.72241211 5.82397461 C-8 3 -8 3 -7 0 C-2.84009547 -1.38663484 -2.84009547 -1.38663484 0 0 Z " fill="#0B0B0B" transform="translate(350,86)"/>
<path d="M0 0 C0.99 0 1.98 0 3 0 C3 1.98 3 3.96 3 6 C8.445 6.495 8.445 6.495 14 7 C13.67 9.64 13.34 12.28 13 15 C11.39536551 14.68991116 9.79130769 14.37683713 8.1875 14.0625 C7.29417969 13.88847656 6.40085937 13.71445312 5.48046875 13.53515625 C3 13 3 13 0 12 C-0.33 16.29 -0.66 20.58 -1 25 C-1.99 24.67 -2.98 24.34 -4 24 C-3.85851011 22.3954444 -3.71164314 20.79136233 -3.5625 19.1875 C-3.48128906 18.29417969 -3.40007813 17.40085937 -3.31640625 16.48046875 C-3 14 -3 14 -2 11 C-2.99128906 11.0309375 -3.98257813 11.061875 -5.00390625 11.09375 C-9.80829707 10.98103702 -14.27955442 10.07232194 -18.95117188 9.06640625 C-23.72407116 8.09423472 -28.12686396 7.86932373 -33 8 C-33.24428343 13.7974423 -33.24428343 13.7974423 -31 19 C-33.475 18.01 -33.475 18.01 -36 17 C-36.76740348 7.2625025 -36.76740348 7.2625025 -34.0625 2.8125 C-27.1603735 -1.27243201 -18.39293978 1.46429355 -10.9375 3 C-9.97650391 3.19078125 -9.01550781 3.3815625 -8.02539062 3.578125 C-5.681954 4.04448055 -3.34037235 4.51854466 -1 5 C-0.67 3.35 -0.34 1.7 0 0 Z " fill="#0D0D0D" transform="translate(720,379)"/>
<path d="M0 0 C0.66 0 1.32 0 2 0 C6 4.47058824 6 4.47058824 6 7 C4.48041413 8.04452496 2.90518785 9.00824275 1.3125 9.9375 C-5.1712661 13.937767 -10.72183244 18.7002687 -16.45410156 23.67626953 C-19.51116596 26.29398955 -22.67879102 28.77347868 -25.83203125 31.2734375 C-28.5927078 33.47203035 -31.3005928 35.72681499 -34 38 C-37.47899158 36.60840337 -38.48052501 35.36748512 -40 32 C-39.5359375 31.71769531 -39.071875 31.43539062 -38.59375 31.14453125 C-30.86551889 26.22787676 -23.93321994 20.35019552 -16.87695312 14.53613281 C-14.3800923 12.49265618 -11.84737233 10.49602223 -9.3125 8.5 C-6.72231205 6.44526267 -4.29434994 4.38030542 -2 2 C-1.34 1.34 -0.68 0.68 0 0 Z " fill="#0C0C0C" transform="translate(676,163)"/>
<path d="M0 0 C0.66 0.99 1.32 1.98 2 3 C1.67 3.99 1.34 4.98 1 6 C0.34 5.34 -0.32 4.68 -1 4 C-4.54178598 3.74996036 -4.54178598 3.74996036 -8 4 C-9.29101129 5.09974748 -9.29101129 5.09974748 -9.48828125 7.7734375 C-9.32611841 11.28510071 -9.32611841 11.28510071 -6.04296875 13.4140625 C-4.7706296 14.17295509 -3.48464548 14.90933353 -2.1875 15.625 C5.9378904 20.28670843 5.9378904 20.28670843 8 24 C8.52320903 28.11092805 8.45925779 30.23457035 6.3125 33.8125 C2.75134616 37.18115903 0.24591787 37.91407463 -4.625 38.25 C-8 38 -8 38 -11 36 C-11.6875 32.375 -11.6875 32.375 -12 29 C-11.319375 29.825 -10.63875 30.65 -9.9375 31.5 C-7.16709688 34.32537316 -7.16709688 34.32537316 -3.3125 34.4375 C0.07357392 34.33204711 0.07357392 34.33204711 2 32 C2.21524529 29.05405409 2.21524529 29.05405409 1 26 C-1.30927469 24.20160066 -3.3458574 22.83332421 -5.875 21.4375 C-13.8638047 16.92664967 -13.8638047 16.92664967 -16 12 C-16.08184146 7.41687812 -15.48570354 5.57070167 -12.5 2.0625 C-8.77470568 -0.67721888 -4.45461966 -1.06910872 0 0 Z " fill="#0C0C0C" transform="translate(412,81)"/>
<path d="M0 0 C2.5363613 1.01454452 3.79351461 1.6853556 5.3125 4 C5.6528125 4.99 5.6528125 4.99 6 6 C5.67 6.66 5.34 7.32 5 8 C5.61488281 8.17015625 6.22976563 8.3403125 6.86328125 8.515625 C13.46284377 10.49444119 13.46284377 10.49444119 16.125 13 C17 15 17 15 16 18 C13.4375 19.1875 13.4375 19.1875 11 20 C10.938125 19.05125 10.87625 18.1025 10.8125 17.125 C10.34725719 13.86961882 10.34725719 13.86961882 7.8125 12.625 C4.50411084 11.88980241 2.39187543 11.52634166 -1 12 C-3.84134954 13.94590084 -6.1999558 16.31529427 -8.625 18.75 C-9.27984375 19.38421875 -9.9346875 20.0184375 -10.609375 20.671875 C-12.42184486 22.43297932 -14.2146502 24.21146018 -16 26 C-16.81210937 26.80953125 -17.62421875 27.6190625 -18.4609375 28.453125 C-18.96882812 28.96359375 -19.47671875 29.4740625 -20 30 C-21.65 28.02 -23.3 26.04 -25 24 C-24.18917969 23.33355469 -23.37835937 22.66710937 -22.54296875 21.98046875 C-9.7607589 12.25970482 -9.7607589 12.25970482 0 0 Z " fill="#080808" transform="translate(643,152)"/>
<path d="M0 0 C17.82 1.485 17.82 1.485 36 3 C36 5.31 36 7.62 36 10 C34.68 10.33 33.36 10.66 32 11 C32.495 11.639375 32.99 12.27875 33.5 12.9375 C35.50950277 17.04023483 35.26385672 20.51443582 35 25 C33.109375 25.58984375 33.109375 25.58984375 31 26 C29.25 24.5625 29.25 24.5625 28 23 C28.66 22.34 29.32 21.68 30 21 C30.51555902 16.35996884 29.89445561 13.66470575 27 10 C24.04742818 8.99023967 24.04742818 8.99023967 20.625 8.75 C19.3875 8.61335938 18.15 8.47671875 16.875 8.3359375 C15.59625 8.22507812 14.3175 8.11421875 13 8 C11.1128125 7.83371094 11.1128125 7.83371094 9.1875 7.6640625 C6.12603528 7.41565418 3.06535852 7.19349439 0 7 C0 4.69 0 2.38 0 0 Z " fill="#0C0C0C" transform="translate(689,351)"/>
<path d="M0 0 C0.10792837 2.60527105 0.18724878 5.20608311 0.25 7.8125 C0.30027344 8.91948242 0.30027344 8.91948242 0.3515625 10.04882812 C0.45013736 15.49508929 0.45013736 15.49508929 -1.765625 17.98046875 C-5.26912987 19.57909597 -8.2342558 19.81025234 -12 19 C-15.24985922 16.31886615 -15.89575014 14.64866582 -16.5625 10.5 C-15.84044791 6.00723146 -14.62408191 4.6987844 -11 2 C-7.05466077 0.54645397 -4.21341935 0 0 0 Z " fill="#F7F7F7" transform="translate(446,92)"/>
<path d="M0 0 C3.5 1 3.5 1 6 2 C5.54636829 3.58468677 5.08688548 5.16769924 4.625 6.75 C4.24214844 8.07257813 4.24214844 8.07257813 3.8515625 9.421875 C3.07235106 11.78095552 2.26171708 13.86182297 1 16 C-2.20841035 17.60420518 -5.5193987 17.47462745 -9 17 C-11.5 15.5 -11.5 15.5 -13 13 C-13.70476018 8.06667872 -13.77041398 6.15562097 -11 2 C-7.24826384 -0.50115744 -4.32813392 -0.66651575 0 0 Z " fill="#F9F9F9" transform="translate(547,108)"/>
<path d="M0 0 C0.23074219 0.98097656 0.46148437 1.96195312 0.69921875 2.97265625 C2.98820364 12.51068847 5.76854595 21.73810011 9 31 C9.33 31.99 9.66 32.98 10 34 C7.36 34.66 4.72 35.32 2 36 C1.7054895 34.94256592 1.7054895 34.94256592 1.4050293 33.86376953 C0.50019924 30.61722972 -0.40614137 27.37111339 -1.3125 24.125 C-1.62123047 23.01640625 -1.92996094 21.9078125 -2.24804688 20.765625 C-4.09516474 14.15488737 -5.9969957 7.56524821 -8 1 C-5.07175348 0.02391783 -3.04386724 -0.08226668 0 0 Z " fill="#0D0D0D" transform="translate(387,87)"/>
<path d="M0 0 C0.99 2.31 1.98 4.62 3 7 C1.85144531 7.49628906 0.70289063 7.99257812 -0.48046875 8.50390625 C-9.07502951 12.25329846 -17.3889861 16.11592164 -25.49609375 20.84765625 C-28 22 -28 22 -31 21 C-32.1875 17.9375 -32.1875 17.9375 -33 15 C-32.319375 14.731875 -31.63875 14.46375 -30.9375 14.1875 C-24.63373512 11.63916952 -18.51640049 8.85472094 -12.4375 5.8125 C-11.74720703 5.46767578 -11.05691406 5.12285156 -10.34570312 4.76757812 C-0.91317576 0 -0.91317576 0 0 0 Z " fill="#0A0A0A" transform="translate(697,223)"/>
<path d="M0 0 C7.77916598 2.04714894 15.3934671 4.38483947 23 7 C20.87225288 9.30592263 18.82790923 10.79825935 16.05859375 12.26171875 C14.93614258 12.85629883 14.93614258 12.85629883 13.79101562 13.46289062 C12.62602539 14.06907227 12.62602539 14.06907227 11.4375 14.6875 C10.65697266 15.10322266 9.87644531 15.51894531 9.07226562 15.94726562 C3.26254618 19 3.26254618 19 1 19 C0.67 12.73 0.34 6.46 0 0 Z " fill="#F2F2F2" transform="translate(707,313)"/>
<path d="M0 0 C2.69990662 1.79993774 4.5418865 3.083773 6 6 C6.40454244 11.25905171 5.66166853 14.45298292 3 19 C-2.66936919 15.41934578 -7.80462523 11.2302261 -13 7 C-10.36545674 1.20400484 -6.39681793 -0.93286928 0 0 Z " fill="#F4F4F4" transform="translate(621,134)"/>
<path d="M0 0 C2.1875 1.625 2.1875 1.625 3.1875 3.625 C3.58912784 8.44453407 3.6217957 10.75640861 1.4375 15.125 C0.695 15.95 -0.0475 16.775 -0.8125 17.625 C-2.1325 17.625 -3.4525 17.625 -4.8125 17.625 C-6.09277344 16.24804688 -6.09277344 16.24804688 -7.171875 14.34375 C-7.56503906 13.66699219 -7.95820312 12.99023438 -8.36328125 12.29296875 C-8.95689453 11.21982422 -8.95689453 11.21982422 -9.5625 10.125 C-9.97371094 9.40957031 -10.38492188 8.69414062 -10.80859375 7.95703125 C-11.82325206 6.18727839 -12.81963277 4.40706939 -13.8125 2.625 C-10.43637017 -2.43919474 -5.27598228 -2.57936911 0 0 Z " fill="#F4F4F4" transform="translate(679.8125,198.375)"/>
<path d="M0 0 C1.875 1.25 1.875 1.25 3 3 C3.12324311 7.43675191 0.6029743 10.44808412 -2.2421875 13.609375 C-4 15 -4 15 -7.75 15.5625 C-11 15 -11 15 -13 13 C-13.59460655 9.80398982 -13.55294059 7.83110702 -11.7265625 5.0859375 C-5.9634901 -1.74541174 -5.9634901 -1.74541174 0 0 Z " fill="#080808" transform="translate(304,524)"/>
<path d="M0 0 C0.66 0.66 1.32 1.32 2 2 C0.72679127 14.82303078 -7.90359641 27.9316406 -14 39 C-14.66 38.67 -15.32 38.34 -16 38 C-14.62620549 34.21655523 -12.83377047 30.8254012 -10.87670898 27.32592773 C-5.96170912 18.48780747 -2.6121181 9.75278267 0 0 Z " fill="#232323" transform="translate(529,292)"/>
<path d="M0 0 C6.30719307 0.92065781 9.91921368 1.9977458 14 7 C13.67 7.99 13.34 8.98 13 10 C10.4375 11.1875 10.4375 11.1875 8 12 C7.67 10.02 7.34 8.04 7 6 C3.7 5.01 0.4 4.02 -3 3 C-2.01 2.67 -1.02 2.34 0 2 C0 1.34 0 0.68 0 0 Z " fill="#181818" transform="translate(646,160)"/>
<path d="M0 0 C0.66 0 1.32 0 2 0 C2 1.98 2 3.96 2 6 C-3.28 7.98 -8.56 9.96 -14 12 C-11.80696055 7.61392109 -10.52012247 6.76633176 -6.4375 4.3125 C-3.03339722 2.40254992 -3.03339722 2.40254992 0 0 Z " fill="#111111" transform="translate(382,119)"/>
<path d="M0 0 C2.625 0.375 2.625 0.375 5 1 C5.625 2.875 5.625 2.875 6 5 C4 7 4 7 1.375 7.125 C0.59125 7.08375 -0.1925 7.0425 -1 7 C-1.625 4.625 -1.625 4.625 -2 2 C-1.34 1.34 -0.68 0.68 0 0 Z " fill="#0E0E0E" transform="translate(706,218)"/>
<path d="M0 0 C2.5 0.125 2.5 0.125 3.5 1.125 C3.625 3.625 3.625 3.625 3.5 6.125 C2.5 7.125 2.5 7.125 0 7.25 C-2.5 7.125 -2.5 7.125 -3.5 6.125 C-3.625 3.625 -3.625 3.625 -3.5 1.125 C-2.5 0.125 -2.5 0.125 0 0 Z " fill="#0E0E0E" transform="translate(379.5,73.875)"/>
<path d="M0 0 C0.721875 0.804375 1.44375 1.60875 2.1875 2.4375 C5.02515689 5.02292072 6.27166147 5.68042813 10 6 C10.33 6.99 10.66 7.98 11 9 C4.375 9.25 4.375 9.25 1 7 C0.3125 3.375 0.3125 3.375 0 0 Z " fill="#303030" transform="translate(400,110)"/>
<path d="M0 0 C2.0625 0.4375 2.0625 0.4375 4 1 C4.33 2.65 4.66 4.3 5 6 C3.34385343 6.38218767 1.67542976 6.71395102 0 7 C-1 6 -1 6 -1.125 3.5 C-1 1 -1 1 0 0 Z " fill="#1D1D1D" transform="translate(548,78)"/>
<path d="M0 0 C3.15068668 0.33165123 4.93994188 0.6965628 7.5625 2.375 C5.5625 4.375 5.5625 4.375 2.7421875 4.5703125 C1.65164063 4.54710938 0.56109375 4.52390625 -0.5625 4.5 C-1.65820312 4.48195313 -2.75390625 4.46390625 -3.8828125 4.4453125 C-4.72585938 4.42210938 -5.56890625 4.39890625 -6.4375 4.375 C-3.8671875 0.421875 -3.8671875 0.421875 0 0 Z " fill="#1C1C1C" transform="translate(544.4375,90.625)"/>
<path d="M0 0 C1.65 0.33 3.3 0.66 5 1 C4.67 2.65 4.34 4.3 4 6 C2.35 5.67 0.7 5.34 -1 5 C-0.67 3.35 -0.34 1.7 0 0 Z " fill="#0A0A0A" transform="translate(560,83)"/>
<path d="M0 0 C1.45742463 -0.08096803 2.91612807 -0.13917774 4.375 -0.1875 C5.18710937 -0.22230469 5.99921875 -0.25710937 6.8359375 -0.29296875 C7.55007813 -0.19628906 8.26421875 -0.09960938 9 0 C9.66 0.99 10.32 1.98 11 3 C10.67 3.99 10.34 4.98 10 6 C9.34 5.34 8.68 4.68 8 4 C6.01178687 3.60235737 4.01055661 3.26224651 2 3 C2 2.34 2 1.68 2 1 C1.34 0.67 0.68 0.34 0 0 Z " fill="#272727" transform="translate(403,81)"/>
<path d="M0 0 C5.94 0.99 5.94 0.99 12 2 C8 5 8 5 4.875 4.75 C2 4 2 4 0 3 C0 2.01 0 1.02 0 0 Z " fill="#1C1C1C" transform="translate(606,164)"/>
<path d="M0 0 C-1.28497537 2.56995074 -2.49912373 2.90434463 -5.0625 4.125 C-5.79597656 4.47820312 -6.52945312 4.83140625 -7.28515625 5.1953125 C-7.85105469 5.46085937 -8.41695313 5.72640625 -9 6 C-8.75 3.625 -8.75 3.625 -8 1 C-5.12800349 -1.17875597 -3.33791789 -1.19211353 0 0 Z " fill="#1C1C1C" transform="translate(435,78)"/>
<path d="M0 0 C0.66 0.66 1.32 1.32 2 2 C1.57469657 5.82773086 0.26430036 9.3756723 -1 13 C-1.66 12.34 -2.32 11.68 -3 11 C-2.01 7.37 -1.02 3.74 0 0 Z " fill="#444444" transform="translate(529,292)"/>
<path d="M0 0 C1 3 1 3 0.22265625 4.82421875 C-0.8515625 6.54947917 -1.92578125 8.27473958 -3 10 C-3.66 9.67 -4.32 9.34 -5 9 C-3.7508258 5.54074837 -2.32472205 2.85306797 0 0 Z " fill="#1D1D1D" transform="translate(518,321)"/>
<path d="M0 0 C0.99 0 1.98 0 3 0 C2.67 1.98 2.34 3.96 2 6 C1.01 5.67 0.02 5.34 -1 5 C-0.67 3.35 -0.34 1.7 0 0 Z " fill="#242424" transform="translate(720,379)"/>
</svg>
